<?xml version="1.0" encoding="UTF-8"?>
<svg id="Layer_2" data-name="Layer 2" xmlns="http://www.w3.org/2000/svg" xmlns:xlink="http://www.w3.org/1999/xlink" viewBox="0 0 442.78 442.78">
  <defs>
    <style>
      .cls-1 {
        fill: url(#linear-gradient-2);
      }

      .cls-2 {
        fill: url(#linear-gradient-3);
      }

      .cls-3 {
        fill: url(#linear-gradient);
      }
    </style>
    <linearGradient id="linear-gradient" x1="-29.85" y1="421.24" x2="437.01" y2="49.88" gradientUnits="userSpaceOnUse">
      <stop offset="0" stop-color="#3186ff"/>
      <stop offset="1" stop-color="#4faba4"/>
    </linearGradient>
    <linearGradient id="linear-gradient-2" x1="77.25" y1="307.43" x2="374.35" y2="130.09" gradientUnits="userSpaceOnUse">
      <stop offset="0" stop-color="#99bc59"/>
      <stop offset="1" stop-color="#edbf20"/>
    </linearGradient>
    <linearGradient id="linear-gradient-3" x1="186.61" y1="221.39" x2="256.17" y2="221.39" gradientUnits="userSpaceOnUse">
      <stop offset="0" stop-color="#e9535c"/>
      <stop offset="1" stop-color="#f08531"/>
    </linearGradient>
  </defs>
  <g id="Layer_1-2" data-name="Layer 1">
    <path class="cls-3" d="M390.61,221.39c0,93.46-75.76,169.22-169.22,169.22S52.17,314.85,52.17,221.39,127.94,52.17,221.39,52.17c18.29,0,35.91,2.91,52.41,8.29l16.13-49.63C268.34,3.81,245.31,0,221.39,0,99.12,0,0,99.12,0,221.39s99.12,221.39,221.39,221.39,221.39-99.12,221.39-221.39c0-48.61-15.68-93.56-42.24-130.07l-42.21,30.67c20.3,27.91,32.28,62.26,32.28,99.41Z"/>
    <path class="cls-1" d="M293.22,221.39c0,39.67-32.16,71.83-71.83,71.83s-71.83-32.16-71.83-71.83,32.16-71.83,71.83-71.83c7.79,0,15.28,1.26,22.3,3.55l16.13-49.64c-12.1-3.94-25.02-6.08-38.43-6.08-68.48,0-124,55.52-124,124s55.52,124,124,124,124-55.52,124-124c0-27.22-8.78-52.38-23.64-72.83l-42.22,30.67c8.6,11.84,13.69,26.4,13.69,42.16Z"/>
    <path class="cls-2" d="M232.25,188.35c-3.42-1.12-7.06-1.74-10.85-1.74-19.21,0-34.78,15.57-34.78,34.78s15.57,34.78,34.78,34.78,34.78-15.57,34.78-34.78c0-7.62-2.45-14.66-6.61-20.39l-28.06,20.39,10.74-33.05Z"/>
  </g>
</svg>